<svg xmlns="http://www.w3.org/2000/svg" version="1.1" xmlns:xlink="http://www.w3.org/1999/xlink" width="2000" height="1500" viewBox="0 0 2000 1500"><rect width="2000" height="1500" x="0" y="0" id="background" stroke="transparent" fill="#ffffff"></rect><svg xml:space="preserve" width="1500" height="1125" data-version="2" data-id="lg_58A6YnTfGub28DZuX6" viewBox="0 0 569 154" x="250" y="187.5"><rect width="100%" height="100%" fill="transparent"></rect><circle r="59.32" transform="translate(81.06 77)scale(1.271)"></circle><path d="M240.705 93.68q0 6.06-2.77 10.38-2.78 4.32-9.1 7.93-4.26 2.58-9.93 3.87-5.68 1.29-11.48 1.29-5.94 0-14.71-3.87-6.32-3.09-10-7.35-3.67-4.26-3.67-9.29 0-3.48 1.55-5.09 1.54-1.62 5.03-1.62 1.8 0 3.74 1.49 1.93 1.48 2.32 2.9 1.81 5.29 6.32 8.06 4.52 2.78 11.22 2.78 7.74 0 12.97-2.84 5.22-2.84 5.22-7.61 0-4.65-5.67-8.26-5.68-3.61-11.61-5.03-8.52-2.32-15.1-5.55-6.83-3.35-10.19-8.25-3.35-4.9-3.35-10.32 0-5.03 3.48-10.26 3.48-5.22 8.26-7.54 2.58-1.29 8.83-2.78 6.26-1.48 9.1-1.48 3.74 0 8.25.9 4.52.9 7.36 2.58 5.67 3.23 8.38 5.81 2.71 2.58 2.71 6.45 0 2.32-1.74 4.12-1.74 1.81-6 1.81-1.03 0-2.06-.9-1.03-.91-2.58-2.71-2.07-2.71-4-3.61-1.94-.65-5.61-1.42-3.68-.78-6.52-.78-3.09 0-6.45 1.29-3.35 1.29-5.61 3.68-2.26 2.39-2.26 5.48 0 2.58 2.39 4.45t5.74 3.03q3.87 1.55 8.39 2.71 5.93 1.81 9.73 3.29 3.81 1.49 7.42 3.68 6.32 3.74 9.16 7.68 2.84 3.93 2.84 10.9m18.32-20.77-6.19-.52q-1.81-.26-2.91-1.55-1.09-1.29-1.09-3.09 0-.91.45-1.94.45-1.03 1.35-1.8 1.68-1.68 9.03-1.68 1.03-5.03 1.03-10.19 0-1.94-.12-3.36-.13-1.42-.13-2.19 0-2.84 2.12-4.26 2.13-1.42 4.84-1.42 3.36 0 4.58 1.68 1.23 1.68 1.23 6.19 0 6.71-1.16 13.16 2.06 0 5.67-.26 4.9-.25 7.1-.25 2.19 0 3.8 1.09 1.62 1.1 1.62 3.03 0 5.03-4.52 5.94-4.77 1.16-14.83 1.42-.39 5.03-.39 10.96 0 9.29 1.16 15.22.77 4.13 2.64 6t5.62 1.87q2.19 0 4.51-1.16 1.55-.9 2.84-.9 1.8 0 2.64 1.16.84 1.16.84 3.1 0 3.61-3.87 5.99-3.87 2.39-9.93 2.39-3.74 0-7.55-1.81-3.8-1.8-6.38-4.51-.39-.39-1.42-2.97-1.03-2.58-1.81-5.54-1.29-6.07-1.29-17.03 0-4.78.52-12.77m41.28 16.77q0-4.91 1.8-9.87 1.81-4.97 4.78-9.1 2.96-4.12 9.41-6.77 6.45-2.64 11.48-2.64 5.16 0 10.52 1.42 5.35 1.41 7.42 4.38 4.77 6.71 4.77 13.16 0 3.48-1.49 5.93-1.48 2.45-4.19 5.29-2.19 2.32-6.9 3.1-4.71.77-9.35.77-2.97 0-7.23-.58-4.25-.58-8.25-1.48.26 2.58 1.29 5.03t2.45 3.74q2.58 2.45 5.35 3.1 2.78.64 7.16.64 4.65 0 8.65-1.55 3.22-1.16 5.28-1.16 2.46 0 3.75 1.49 1.29 1.48 1.29 3.8 0 3.23-3.75 5.29-3.74 2.06-8.57 3.03-4.84.97-7.81.97-6.06 0-11.74-2.19-5.67-2.2-9.41-6.2-3.1-3.61-4.91-8.7-1.8-5.1-1.8-10.9m28.12-17.42q-2.84 0-5.68 1.1-2.83 1.09-4.64 3.03-2.32 2.45-3.16 3.93-.84 1.49-1.1 4.07 3.23 1.03 13.42 1.03 5.55 0 8.58-1.68 3.03-1.67 3.03-4.38t-3.36-4.91q-3.35-2.19-7.09-2.19m48.89 24.77q0 4.9 1.48 7.55 1.49 2.64 3.81 2.64 1.29 0 2.45-.19 1.16-.2 2.32-.2 1.29 0 2.26 1.29.97 1.29.97 2.84 0 3.1-2.91 4.84-2.9 1.74-7.8 1.74-3.48 0-7.03-2.13-3.55-2.13-5.87-6.71-2.32-4.58-2.32-11.41 0-14.71.51-24.9.65-12.13.65-30.57 0-5.81.64-8.13.78-1.81 2.52-2.77 1.74-.97 3.68-.97 1.93 0 3.41.64 1.49.65 2 2.07.52 1.55.71 3.03.2 1.48.2 4.19 0 5.29-.39 10.19-.26 5.94-.26 8.65-1.03 22.7-1.03 38.31m36.51 0q0 4.9 1.48 7.55 1.48 2.64 3.81 2.64 1.29 0 2.45-.19 1.16-.2 2.32-.2 1.29 0 2.26 1.29.96 1.29.96 2.84 0 3.1-2.9 4.84-2.9 1.74-7.8 1.74-3.49 0-7.03-2.13-3.55-2.13-5.87-6.71-2.32-4.58-2.32-11.41 0-14.71.51-24.9.65-12.13.65-30.57 0-5.81.64-8.13.78-1.81 2.52-2.77 1.74-.97 3.67-.97 1.94 0 3.42.64 1.49.65 2 2.07.52 1.55.71 3.03.19 1.48.19 4.19 0 5.29-.38 10.19-.26 5.94-.26 8.65-1.03 22.7-1.03 38.31m19.61-23.48q-1.04 0-1.88-.84-.83-.84-.83-2 0-2.96 2.58-5.54.77-.39 3.09-1.29 2.32-.91 4.13-.91 4.9 0 8 2.65 3.09 2.64 3.09 7.54 0 1.42-.51 6.07-.52 5.42-.52 8.38 0 9.03 2.45 14.58.91 1.81 2.84 2.84 1.94 1.03 3.48 1.03 3.75 0 6.07-1.29 2.32-1.29 5.03-4.13 2.71-2.84 3.55-6.45.83-3.61 1.22-9.93.26-4.13.52-6.06.64-6.2.64-10.58 0-2.84 1.55-4.71t4.26-1.87q1.55 0 3.54.97 2 .96 2.65 2.25.77 1.29.77 4.26 0 1.55-.38 2.97-.91 3.22-.91 7.74l.13 6.71q0 9.15 1.29 13.54.65 2.06 1.81 4.19 1.16 2.13 2.19 3.55 2.58 2.84 3.36 3.94.77 1.09.77 2.12 0 1.55-1.48 2.91-1.49 1.35-3.16 1.35-4.78 0-8.26-3.22-3.48-3.23-5.16-8.39-4.39 5.03-8.13 8.13-2.58 1.8-6.32 2.64-3.74.84-7.48.84-5.03 0-10.19-4.13-5.16-4.13-6.97-9.54-.13-.26-.71-2.07-.58-1.8-.58-5.42 0-4.77.52-11.99.39-4.65.39-8.52 0-1.16-.84-1.93-.84-.78-1.87-.78-.78 0-1.75.2-.96.19-1.99.19m117.39-13.41q2.58 0 4.06 1.22 1.48 1.23 1.48 3.03 0 1.29-.45 2.65-.45 1.35-.97 2.77-2.96 6.97-12.51 19.48 9.8 12.64 15.87 16.25.51.26 1.93.91 1.42.64 2.26 1.54.84.91.84 2.07 0 2.84-2.13 4.58-2.13 1.74-5.1 1.74-5.03 0-10.96-5.61-5.93-5.61-10.06-11.81-2.97 4.52-6.78 8.97-3.8 4.45-7.03 7.55-1.29 1.42-3.03 2.19-1.74.77-3.42.77-2.32 0-4.12-1.03-1.81-1.03-1.81-3.61 0-.65.9-2.13.91-1.48 1.04-1.74 1.54-2.71 4.12-5.61 2.58-2.9 3.23-3.68 1.55-1.93 3.35-3.74 1.03-1.16 3.1-3.61 2.06-2.45 2.84-3.87l-4.52-6.19q-3.22-3.74-5.55-6-2.32-2.26-3.74-2.26-2.06 0-3.87 1.16-1.54 1.03-3.09 1.03-1.68 0-2.58-.83-.91-.84-.91-1.88 0-4.38 3.49-7.54 3.48-3.16 8.77-3.16 5.03 0 8.96 3.42 3.94 3.41 7.81 9.09.52.52 1.16 1.68.65 1.16 1.29 1.93 1.42-2.06 5.16-8 4-7.09 4.77-8.12 2.71-3.61 6.2-3.61"></path><path fill="#ffffff" d="M103.255 89.41q0 3.99-1.83 6.84-1.83 2.85-5.99 5.23-2.81 1.7-6.55 2.55-3.74.85-7.56.85-3.91 0-9.69-2.55-4.17-2.04-6.59-4.85-2.42-2.8-2.42-6.12 0-2.29 1.02-3.36 1.02-1.06 3.31-1.06 1.19 0 2.47.98 1.27.98 1.53 1.91 1.19 3.49 4.16 5.31 2.98 1.83 7.4 1.83 5.1 0 8.54-1.87 3.44-1.87 3.44-5.01 0-3.06-3.74-5.44-3.74-2.38-7.65-3.32-5.61-1.53-9.94-3.65-4.51-2.21-6.72-5.44-2.21-3.23-2.21-6.8 0-3.32 2.3-6.76 2.29-3.44 5.44-4.97 1.7-.85 5.82-1.83 4.12-.98 5.99-.98 2.47 0 5.44.6 2.98.59 4.85 1.7 3.74 2.12 5.52 3.82 1.79 1.7 1.79 4.25 0 1.53-1.15 2.72-1.15 1.19-3.95 1.19-.68 0-1.36-.59-.68-.6-1.7-1.79-1.36-1.78-2.64-2.38-1.27-.42-3.69-.93-2.43-.51-4.3-.51-2.04 0-4.25.85t-3.69 2.42q-1.49 1.57-1.49 3.61 0 1.7 1.57 2.93 1.57 1.24 3.78 2 2.55 1.02 5.53 1.79 3.91 1.19 6.42 2.16 2.5.98 4.88 2.43 4.17 2.46 6.04 5.05 1.87 2.6 1.87 7.19" paint-order="stroke"></path></svg></svg>